<svg version="1" xmlns="http://www.w3.org/2000/svg" width="682.667" height="682.667" viewBox="0 0 512.000000 512.000000"><path d="M0 256v256h512V0H0v256zm217-152.5c6.5 3.3 6-8.8 6 152.6 0 145.5 0 146.7-2 149.2-2.8 3.5-8.1 5.2-12.2 3.8-2.3-.8-16.6-14.4-46.3-44.1l-43-43H98.7c-23.3 0-25.3-.5-28.2-6.6-2.3-4.8-2.3-114 0-118.8 2.9-6.1 4.9-6.6 28.2-6.6h20.8l42.5-42.6c23.4-23.4 43.9-43.2 45.5-44 3.9-1.7 6-1.7 9.5.1zm164.7 13.6c4.5 2.2 14.7 13 23.7 25.3 49.5 67.2 49.5 159.9.1 227.1-9 12.3-19.4 23.3-24.1 25.6-6.6 3.2-12.5 2-18-3.5-2.8-2.7-4.5-5.4-4.9-7.9-1.3-7 0-10 9.6-20.9 19.5-22.3 30.9-44.3 37.5-72.4 2.7-11.2 2.8-13.2 2.8-34.4s-.1-23.2-2.8-34.4c-6.6-28.2-17.9-50-37.5-72.4-9.5-10.9-10.9-13.9-9.7-20.8.4-1.9 2.3-5.3 4.3-7.5 5.4-6 11.8-7.3 19-3.8zm-59.2 30.8c5.1 2.3 15.8 13.8 23.6 25.5 10.7 15.8 18.2 33.7 22.5 53.6 1.5 6.7 1.9 12.7 1.9 29 0 22.3-.9 28.9-6.6 46.5-7.8 24.1-29.2 55.9-41.4 61.6-5 2.3-7.3 2.4-12.6.3-5.9-2.4-9.9-8.3-9.9-14.5 0-6.7 1-8.8 8.1-16.6 8.1-8.9 13-16.3 18.4-27.6 20.3-42.4 13.1-92.3-18.4-127-7.1-7.8-8.1-9.9-8.1-16.6 0-6.2 3-10.9 9-13.9 5.3-2.7 8.2-2.7 13.5-.3zm-55.7 32.3c6.8 4.2 19.7 22.6 25.1 35.7 6 14.3 7.6 23 7.5 40.6-.1 17.4-1.2 23.2-7.3 39.1-6.4 16.6-21.8 36.2-30.1 38.4-11.6 3.1-22.8-7.5-20.6-19.4.4-2.1 3.1-6.4 7.2-11.2 24.6-29.6 24.1-67.4-1.3-96.4-7.8-9-8.3-16.6-1.8-23.9 5.7-6.3 14-7.4 21.3-2.9z"/></svg>